<svg xmlns="http://www.w3.org/2000/svg" width="800" height="800" viewBox="0 0 800 800">
  <defs>
    <style>
      .cls-1 {
        fill: none;
        stroke: #376080;
        stroke-linecap: round;
        stroke-linejoin: round;
        stroke-width: 55.38px;
      }

      .cls-2 {
        fill-rule: evenodd;
      }
    </style>
  </defs>
  <circle class="cls-1" cx="400.125" cy="399.844" r="288.25"/>
  <path id="M" class="cls-2" d="M146.865,241.293l1.58,320.443,57.636-.284L205.56,455.811l-6.413-141.046L298.482,561l41.4-.2L437.01,313.373,431.988,454.7l0.521,105.641,57.636-.284-1.579-320.444-74.79.369L319.155,486.064,221.884,240.923Z"/>
  <path id="B" class="cls-2" d="M554.915,559.732q56.034-.276,85.992-24.633t29.734-69.475q-0.133-27.288-14.982-46.7t-41.872-26.314q23.737-9.8,36-27.469a67.34,67.34,0,0,0,12.155-39.676q-0.212-43.132-29.824-64.779t-86.1-21.365l-114.129.563,1.579,320.443Zm4.776-144.622q53.064,0.841,53.314,50.8,0.114,23.109-15.146,36.169t-42.477,13.2l-64.269.317L490.619,415.45ZM489.974,284.5l56.264-.277q29.73-.147,43.851,10.348t14.235,34.264q0.106,21.572-15.045,33.417t-42.14,11.983l-56.721.279Z"/>
</svg>
